PathFileType	4	(X/Y/Z)	E:\Marcel_BSc\Ayumi_22_01_2025\22-01-2025\conv_dl_0.trc
DataRate	CameraRate	NumFrames	NumMarkers	Units	OrigDataRate	OrigDataStartFrame	OrigNumFrames
200.0	200.0	4	47	mm	200.0	294	2348	
Frame#	Time	FHD			LBHD			RBHD			RBAR			LBAR			RSACR			LSACR			USACR			C7			CLAV			T10			RSHO			LSHO			LTHI1			LTHI3			LTHI2			LTIB1			LTIB2			LTIB3			LMMAL			LLMAL			LHEE			LMT1			LMT5			LMT3			RTHI1			RTHI2			RTHI3			RTIB1			RTIB3			RTIB2			RLMAL			RMMAL			RHEE			RMT5			RMT1			RMT3			LMUPA			LDUPA			LUUPA			LRAD			RUL			RRAD			RUFIN			RMUPA			RDUPA			RUUPA			
		X1	Y1	Z1	X2	Y2	Z2	X3	Y3	Z3	X4	Y4	Z4	X5	Y5	Z5	X6	Y6	Z6	X7	Y7	Z7	X8	Y8	Z8	X9	Y9	Z9	X10	Y10	Z10	X11	Y11	Z11	X12	Y12	Z12	X13	Y13	Z13	X14	Y14	Z14	X15	Y15	Z15	X16	Y16	Z16	X17	Y17	Z17	X18	Y18	Z18	X19	Y19	Z19	X20	Y20	Z20	X21	Y21	Z21	X22	Y22	Z22	X23	Y23	Z23	X24	Y24	Z24	X25	Y25	Z25	X26	Y26	Z26	X27	Y27	Z27	X28	Y28	Z28	X29	Y29	Z29	X30	Y30	Z30	X31	Y31	Z31	X32	Y32	Z32	X33	Y33	Z33	X34	Y34	Z34	X35	Y35	Z35	X36	Y36	Z36	X37	Y37	Z37	X38	Y38	Z38	X39	Y39	Z39	X40	Y40	Z40	X41	Y41	Z41	X42	Y42	Z42	X43	Y43	Z43	X44	Y44	Z44	X45	Y45	Z45	X46	Y46	Z46	X47	Y47	Z47	
294	1.46	150.87924	1609.6223	-604.91571	167.02791	1593.5979	-544.26855	193.26364	1579.8571	-674.63556	244.41386	241.7149	-1723.3556	265.88965	251.68568	499.29758	376.35562	963.33575	-640.72772	375.29105	964.27509	-567.35315	369.59482	974.78577	-604.86853	348.38809	1400.2744	-593.38702	211.75456	1336.1146	-609.74463	360.99493	1124.3916	-598.92505	289.24002	1411.8756	-740.34369	270.63135	1404.6013	-460.59317	302.04608	613.10297	-419.89719	324.2059	551.78796	-430.87521	274.18393	552.86786	-422.15067	316.8688	243.21536	-411.73926	367.95856	238.05409	-416.81805	336.63382	180.30496	-419.63892	328.77924	73.79187	-502.74783	350.19153	73.338211	-431.31818	387.87601	36.19865	-473.84076	190.83202	43.854431	-452.72266	222.07909	28.727253	-377.44043	193.22321	40.633999	-417.77316	310.33054	613.35333	-782.69666	282.67957	554.12585	-778.06799	333.78366	552.91229	-774.91193	318.53476	281.39383	-794.33252	338.83255	218.4706	-788.87305	369.38599	277.13184	-791.74738	345.04208	74.473869	-771.70001	311.81226	79.198021	-701.79724	385.4733	31.32559	-729.80444	211.03548	32.296188	-812.27753	184.58633	41.147556	-750.85944	190.42459	38.423626	-782.06055	307.69388	1362.2494	-273.66827	329.37106	1317.1448	-270.06726	322.8653	1365.0868	-333.85999	240.43562	1371.0845	52.23019	341.76041	1360.5994	-1240.9971	286.36438	1387.3633	-1241.2885	286.25903	1390.9244	-1314.5349	359.08157	1362.4213	-847.62305	357.49963	1349.2523	-908.25989	371.59296	1315.1968	-838.30121
295	1.465	150.8653	1609.6257	-604.89325	167.0201	1593.5839	-544.26978	193.26045	1579.8293	-674.64166	244.39366	241.68697	-1723.379	265.90051	251.67447	499.2966	376.36273	963.35291	-640.72314	375.30646	964.27277	-567.35101	369.62888	974.75891	-604.8786	348.41141	1400.2732	-593.37518	211.77586	1336.1129	-609.75006	361.00214	1124.3956	-598.91541	289.26703	1411.8813	-740.33771	270.65051	1404.6166	-460.60565	302.04944	613.08679	-419.90363	324.17938	551.77808	-430.87341	274.16266	552.86011	-422.20056	316.97842	243.35617	-411.68985	367.96954	238.05927	-416.82578	336.60901	180.29541	-419.65646	328.78784	73.789696	-502.73151	350.18088	73.335701	-431.32483	387.86523	36.191849	-473.83362	190.83635	43.851871	-452.70499	222.3499	28.572491	-377.46619	193.22165	40.636257	-417.77567	310.33655	613.31598	-782.69061	282.65714	554.20001	-778.03156	333.77008	552.92395	-774.91278	318.55869	281.40842	-794.34229	338.8421	218.45955	-788.86035	369.37741	277.12659	-791.74951	345.03748	74.473221	-771.69983	311.8175	79.199196	-701.80164	385.48627	31.310823	-729.79413	210.99126	32.258644	-812.24921	184.56746	41.15921	-750.85712	190.43684	38.448826	-782.05786	307.68445	1362.2769	-273.67062	329.37708	1317.1652	-270.06113	322.86139	1365.0894	-333.87585	240.46277	1371.1091	52.232941	341.76651	1360.6027	-1241.0132	286.36893	1387.3536	-1241.2881	286.24161	1390.9156	-1314.5457	359.07608	1362.5496	-847.55078	357.52014	1349.2458	-908.25934	371.60834	1315.2003	-838.30566
296	1.47	150.85507	1609.59	-604.94135	167.00597	1593.5492	-544.28821	193.25356	1579.8236	-674.64154	244.37695	241.69604	-1723.4042	265.888	251.68719	499.28458	376.37207	963.34595	-640.7298	375.30676	964.28528	-567.35626	369.64539	974.75812	-604.88293	348.41489	1400.282	-593.37537	211.80563	1336.1106	-609.74677	361.00101	1124.4028	-598.92413	289.28876	1411.8695	-740.32184	270.65747	1404.6122	-460.60635	302.05316	613.09991	-419.88235	324.22076	551.77728	-430.87646	274.17398	552.85901	-422.20218	316.97531	243.33755	-411.70889	367.96844	238.05338	-416.82449	336.61542	180.323	-419.65158	328.80634	73.783447	-502.72595	350.19485	73.324478	-431.32004	387.86349	36.197018	-473.82446	190.83536	43.855984	-452.71469	222.11588	28.881552	-377.40738	193.22893	40.628216	-417.7666	310.33536	613.33173	-782.68542	282.64975	554.14124	-778.04065	333.75189	552.909	-774.91284	318.71066	281.32364	-794.31909	338.83237	218.45041	-788.87573	369.37531	277.12814	-791.75629	345.02936	74.483971	-771.70367	311.83286	79.200638	-701.81342	385.47125	31.324234	-729.80475	211.01819	32.291988	-812.26538	184.57271	41.151768	-750.86456	190.43034	38.444065	-782.06683	307.69235	1362.299	-273.66818	329.39047	1317.1702	-270.06226	322.86627	1365.108	-333.87357	240.4823	1371.1375	52.232662	341.75925	1360.6044	-1241.009	286.34946	1387.3599	-1241.2952	286.23297	1390.9075	-1314.5437	359.09851	1362.5333	-847.55609	357.53223	1349.2452	-908.26068	371.62726	1315.1919	-838.30688
297	1.475	150.83203	1609.5658	-604.95978	166.99417	1593.5579	-544.2807	193.26114	1579.7958	-674.64532	244.34444	241.73308	-1723.4054	265.88312	251.68663	499.29712	376.38284	963.33441	-640.7428	375.31866	964.28809	-567.35968	369.63342	974.79218	-604.87134	348.43997	1400.2772	-593.37256	211.82632	1336.092	-609.75879	361.0043	1124.4105	-598.91791	289.31799	1411.8682	-740.34283	270.67249	1404.6219	-460.60007	302.05966	613.09357	-419.88614	324.22049	551.77332	-430.87024	274.16409	552.8537	-422.26477	316.97116	243.33443	-411.71286	367.95645	238.05402	-416.83539	336.60703	180.30855	-419.65039	328.77914	73.808372	-502.74103	350.18213	73.327904	-431.32654	387.86404	36.210079	-473.83176	190.84496	43.863033	-452.69507	222.36372	28.565544	-377.46231	193.22398	40.626625	-417.78806	310.31085	613.34064	-782.67932	282.63281	554.16022	-778.01178	333.76407	552.90472	-774.92474	318.57477	281.41693	-794.33582	338.8324	218.46504	-788.86597	369.38379	277.12009	-791.74963	345.0397	74.472748	-771.69025	311.81543	79.213577	-701.80688	385.46695	31.318754	-729.80621	211.07632	32.353226	-812.28314	184.57941	41.144402	-750.85779	190.39491	38.431522	-782.08118	307.69937	1362.3173	-273.67383	329.39838	1317.1962	-270.0625	322.8844	1365.1265	-333.86713	240.50455	1371.151	52.235714	341.75937	1360.5934	-1241.0226	286.35718	1387.3628	-1241.3007	286.24347	1390.851	-1314.5786	359.10419	1362.5443	-847.55548	357.55591	1349.2437	-908.26038	371.63864	1315.1735	-838.31256
